<?xml version="1.0" standalone="no"?>
<!DOCTYPE svg PUBLIC "-//W3C//DTD SVG 20010904//EN"
 "http://www.w3.org/TR/2001/REC-SVG-20010904/DTD/svg10.dtd">
<svg version="1.0" xmlns="http://www.w3.org/2000/svg"
 width="500.000000pt" height="500.000000pt" viewBox="0 0 500.000000 500.000000"
 preserveAspectRatio="xMidYMid meet">
<metadata>
Created by potrace 1.14, written by Peter Selinger 2001-2017
</metadata>
<g transform="translate(0.000000,500.000000) scale(0.100000,-0.100000)"
fill="#000000" stroke="none">
<path d="M2436 4759 c-51 -12 -949 -436 -1005 -474 -27 -19 -56 -52 -75 -85
l-31 -55 0 -625 0 -625 27 -51 c15 -29 45 -67 68 -86 50 -43 952 -473 1028
-490 102 -23 142 -9 658 238 508 243 522 252 564 347 21 47 21 59 22 651 0
684 2 670 -75 748 -36 37 -113 77 -512 266 -258 123 -494 230 -524 238 -61 16
-88 16 -145 3z m162 -193 c167 -72 812 -389 845 -416 75 -63 72 -34 75 -620 2
-394 0 -536 -9 -569 -20 -72 -66 -107 -244 -190 -88 -41 -279 -132 -425 -201
-146 -70 -282 -130 -302 -134 -21 -4 -57 -2 -80 5 -24 6 -196 83 -383 171
-545 257 -537 253 -570 330 -13 32 -15 111 -15 565 0 337 4 542 11 566 20 72
51 91 498 302 233 110 433 203 445 207 44 13 98 7 154 -16z"/>
<path d="M1190 2631 c-53 -11 -184 -72 -914 -421 -53 -25 -106 -59 -131 -84
-77 -77 -75 -62 -75 -731 0 -670 -1 -662 73 -743 35 -38 76 -62 242 -142 472
-228 763 -360 817 -371 103 -21 140 -7 648 234 401 191 471 228 511 268 82 81
80 59 77 760 -3 613 -3 614 -25 656 -43 79 -87 105 -568 335 -253 121 -485
226 -515 234 -58 15 -85 16 -140 5z m115 -182 c78 -22 867 -407 902 -441 58
-56 58 -53 58 -638 0 -534 0 -535 -22 -577 -13 -23 -35 -50 -50 -61 -16 -11
-143 -74 -283 -140 -140 -66 -331 -157 -425 -202 -221 -107 -240 -109 -400
-33 -530 250 -744 355 -772 377 -18 15 -42 45 -53 66 -19 38 -20 59 -20 580 0
588 -1 578 57 635 16 17 95 60 174 97 79 37 263 124 409 194 339 162 347 164
425 143z"/>
<path d="M3675 2625 c-42 -11 -731 -332 -930 -433 -71 -35 -136 -102 -156
-158 -11 -32 -14 -155 -14 -649 l0 -610 28 -57 c17 -34 46 -72 70 -92 23 -19
184 -101 357 -184 690 -327 674 -320 772 -307 72 10 89 18 523 225 209 100
405 193 435 208 73 34 133 92 161 155 l24 52 0 610 0 610 -28 57 c-16 32 -44
71 -64 87 -48 40 -953 471 -1023 488 -68 16 -91 15 -155 -2z m570 -377 c231
-110 432 -210 448 -220 15 -11 37 -38 50 -61 22 -42 22 -46 25 -577 3 -586 3
-587 -56 -643 -15 -14 -86 -54 -157 -88 -72 -34 -266 -126 -433 -206 -336
-160 -364 -168 -447 -135 -27 11 -230 106 -450 211 -428 204 -449 218 -473
299 -16 52 -17 1050 -1 1105 14 52 58 98 121 129 178 87 816 387 833 391 64
18 117 -3 540 -205z"/>
</g>
</svg>
